<svg width="84" height="64" viewBox="0 0 84 64" fill="none" xmlns="http://www.w3.org/2000/svg">
<path d="M53.8249 0C53.004 1.46487 52.2669 2.98027 51.5969 4.52933C45.2311 3.5696 38.748 3.5696 32.3655 4.52933C31.7122 2.98027 30.9583 1.46487 30.1375 0C24.157 1.02713 18.3273 2.82873 12.7991 5.3712C1.84325 21.6869 -1.12186 37.5817 0.352338 53.2575C6.76835 58.0226 13.955 61.6595 21.6107 63.9831C23.3361 61.6595 24.8606 59.1844 26.1673 56.6083C23.6879 55.6822 21.2924 54.5204 18.9974 53.1734C19.6004 52.7356 20.1868 52.281 20.7563 51.8432C34.2082 58.2079 49.7877 58.2079 63.2563 51.8432C63.8259 52.3147 64.4122 52.7693 65.0153 53.1734C62.7202 54.5372 60.3247 55.6822 57.8287 56.6251C59.1353 59.2013 60.6597 61.6764 62.3852 64C70.0407 61.6764 77.2273 58.0563 83.6438 53.2913C85.3856 35.1065 80.6618 19.3465 71.163 5.38807C65.6519 2.8456 59.8221 1.04393 53.8416 0.0336667L53.8249 0ZM28.0435 43.6096C23.9058 43.6096 20.4716 39.8379 20.4716 35.1739C20.4716 30.5099 23.7717 26.7214 28.0268 26.7214C32.2818 26.7214 35.6657 30.5267 35.5987 35.1739C35.5317 39.8211 32.265 43.6096 28.0435 43.6096ZM55.9524 43.6096C51.7979 43.6096 48.3973 39.8379 48.3973 35.1739C48.3973 30.5099 51.6974 26.7214 55.9524 26.7214C60.2075 26.7214 63.5746 30.5267 63.5076 35.1739C63.4406 39.8211 60.1739 43.6096 55.9524 43.6096Z" fill="white"/>
</svg>
