<svg width="64" height="64" viewBox="0 0 64 64" fill="none" xmlns="http://www.w3.org/2000/svg">
<path d="M8.3439 0.395796C5.55226 2.23838 0.0521657 9.26221 0 11.1042V14.1532C0 18.0182 3.24992 21.4151 6.20068 21.4151C9.74377 21.4151 12.6958 18.151 12.6961 14.2768C12.6961 18.151 15.5469 21.4151 19.0903 21.4151C22.6339 21.4151 25.3932 18.151 25.3932 14.2768C25.3932 18.151 28.4246 21.4151 31.9679 21.4151H32.0321C35.5757 21.4151 38.607 18.151 38.607 14.2768C38.607 18.151 41.3666 21.4151 44.9097 21.4151C48.4531 21.4151 51.3039 18.151 51.3039 14.2768C51.3039 18.151 54.2565 21.4151 57.7993 21.4151C60.7501 21.4151 64 18.0187 64 14.1532V11.1042C63.9478 9.26192 58.4477 2.2378 55.6566 0.395796C46.9799 0.0571444 40.9647 -0.00142382 31.9997 2.58875e-05C23.0351 0.000895712 10.8132 0.156594 8.34338 0.395796H8.3439ZM25.3484 19.5949C25.0096 20.2514 24.5899 20.852 24.1016 21.3795C22.7641 22.8332 20.9307 23.7344 18.9095 23.7344C16.9646 23.7364 15.0966 22.8905 13.7065 21.3783C13.2219 20.8506 12.8536 20.2864 12.5164 19.6294L12.5148 19.6305C12.1778 20.2887 11.7083 20.8526 11.2227 21.3809C9.83211 22.892 7.96426 23.7372 6.01966 23.7352C5.77605 23.7352 5.52252 23.6604 5.31751 23.5821C5.03269 26.8794 4.91244 30.0304 4.86993 32.3279L4.86941 32.341C4.86419 33.5077 4.85897 34.4671 4.85376 35.8C4.90853 42.718 4.23742 58.2223 7.59767 62.0319C12.8049 63.3816 22.3866 63.9962 31.9995 64H32.001C41.6136 63.9962 51.1954 63.3816 56.4026 62.0319C59.7628 58.222 59.0917 42.7177 59.1465 35.7997C59.1408 34.4671 59.1361 33.5077 59.1309 32.3407L59.1301 32.3276C59.0878 30.0296 58.9676 26.8788 58.6828 23.5816C58.4777 23.6598 58.2245 23.7346 57.9806 23.7346C56.036 23.7366 54.1682 22.8914 52.7776 21.3803C52.2919 20.852 51.8224 20.2884 51.4852 19.6299L51.4836 19.6288C51.1461 20.2858 50.7781 20.8503 50.2935 21.3777C48.9035 22.8898 47.0355 23.7356 45.0907 23.7335C43.0698 23.7335 41.2362 22.8318 39.8987 21.3783C39.4103 20.8509 38.9907 20.2502 38.6519 19.5937C38.3167 20.2495 37.901 20.8501 37.4166 21.3783C36.0263 22.8902 34.1581 23.7359 32.2131 23.7338C32.1427 23.7338 32.0723 23.7303 32.0018 23.728H32C31.9296 23.7303 31.8592 23.7338 31.7879 23.7338C29.843 23.7359 27.9748 22.8904 26.5844 21.3786C26.1001 20.8504 25.6843 20.2498 25.3491 19.594L25.3484 19.5949ZM20.005 27.2754L20.0045 27.2783H20.0084C22.1245 27.2832 24.0043 27.2783 26.3335 30.1041C28.1666 29.8904 30.0821 29.7837 31.9992 29.7869H32.0008C33.9179 29.784 35.8334 29.8904 37.6668 30.1041C39.996 27.278 41.8757 27.283 43.9919 27.2783H43.9955L43.995 27.2754C44.9947 27.2754 48.994 27.2754 51.7807 35.9757L54.774 47.9111C56.9921 56.7903 54.0637 57.0075 50.4111 57.0153C44.9942 56.7912 41.9949 52.4183 41.9949 48.046C38.9965 48.5922 35.4985 48.8653 32.0005 48.8656H31.999C28.5007 48.8656 25.0028 48.5922 22.0045 48.046C22.0045 52.4183 19.005 56.7912 13.5884 57.0153C9.93574 57.0075 7.00768 56.7906 9.22576 47.9111L12.2198 35.976C15.0065 27.2757 19.0058 27.2757 20.0055 27.2757L20.005 27.2754ZM31.9992 34.1128V34.1146C31.994 34.1204 26.2967 39.9366 25.2725 42.0053L29.0033 41.8392V45.4559C29.0033 45.6252 30.5005 45.5562 31.9992 45.4791H32.0008C33.499 45.5562 34.9964 45.6252 34.9964 45.4559V41.8392L38.7273 42.0053C37.7028 39.9366 32.0005 34.1146 32.0005 34.1146V34.1128L31.9997 34.1134L31.9992 34.1128Z" fill="white"/>
</svg>
